<mxfile host="app.diagrams.net" modified="2023-05-30T23:34:27.651Z" agent="Mozilla/5.0 (Windows NT 10.0; Win64; x64) AppleWebKit/537.36 (KHTML, like Gecko) Chrome/113.0.0.0 Safari/537.36" etag="nQZcudQkJqa9eCyIW1oC" version="21.3.2" type="google">
  <diagram name="PÃ¡gina-1" id="0pxwvyW7rn8eY9EXdRGp">
    <mxGraphModel grid="1" page="1" gridSize="10" guides="1" tooltips="1" connect="1" arrows="1" fold="1" pageScale="1" pageWidth="827" pageHeight="1169" math="0" shadow="0">
      <root>
        <mxCell id="0" />
        <mxCell id="1" parent="0" />
        <mxCell id="iDuxMZxF-oAPxdHn8beQ-16" style="edgeStyle=orthogonalEdgeStyle;rounded=0;orthogonalLoop=1;jettySize=auto;html=1;exitX=0;exitY=0.75;exitDx=0;exitDy=0;endArrow=none;endFill=0;" edge="1" parent="1" source="iDuxMZxF-oAPxdHn8beQ-1" target="iDuxMZxF-oAPxdHn8beQ-3">
          <mxGeometry relative="1" as="geometry">
            <mxPoint x="229.79310344827593" y="330" as="targetPoint" />
            <Array as="points">
              <mxPoint x="260" y="170" />
              <mxPoint x="240" y="170" />
            </Array>
          </mxGeometry>
        </mxCell>
        <mxCell id="iDuxMZxF-oAPxdHn8beQ-19" style="edgeStyle=orthogonalEdgeStyle;rounded=0;orthogonalLoop=1;jettySize=auto;html=1;exitX=0;exitY=0.25;exitDx=0;exitDy=0;entryX=0;entryY=0.5;entryDx=0;entryDy=0;endArrow=none;endFill=0;" edge="1" parent="1" source="iDuxMZxF-oAPxdHn8beQ-1" target="iDuxMZxF-oAPxdHn8beQ-3">
          <mxGeometry relative="1" as="geometry">
            <Array as="points">
              <mxPoint x="260" y="145" />
              <mxPoint x="260" y="160" />
              <mxPoint x="230" y="160" />
            </Array>
          </mxGeometry>
        </mxCell>
        <mxCell id="iDuxMZxF-oAPxdHn8beQ-23" value="I2C" style="edgeLabel;html=1;align=center;verticalAlign=middle;resizable=0;points=[];" connectable="0" vertex="1" parent="iDuxMZxF-oAPxdHn8beQ-19">
          <mxGeometry x="0.1123" y="-1" relative="1" as="geometry">
            <mxPoint x="1" y="48" as="offset" />
          </mxGeometry>
        </mxCell>
        <mxCell id="iDuxMZxF-oAPxdHn8beQ-1" value="Sensor 1 - Temperature" style="rounded=0;whiteSpace=wrap;html=1;fillColor=#dae8fc;strokeColor=#6c8ebf;" vertex="1" parent="1">
          <mxGeometry x="245" y="130" width="120" height="60" as="geometry" />
        </mxCell>
        <mxCell id="iDuxMZxF-oAPxdHn8beQ-17" style="edgeStyle=orthogonalEdgeStyle;rounded=0;orthogonalLoop=1;jettySize=auto;html=1;exitX=0;exitY=0.25;exitDx=0;exitDy=0;strokeColor=none;" edge="1" parent="1" source="iDuxMZxF-oAPxdHn8beQ-2">
          <mxGeometry relative="1" as="geometry">
            <mxPoint x="180" y="235" as="targetPoint" />
            <Array as="points">
              <mxPoint x="206" y="235" />
              <mxPoint x="206" y="250" />
              <mxPoint x="180" y="250" />
            </Array>
          </mxGeometry>
        </mxCell>
        <mxCell id="iDuxMZxF-oAPxdHn8beQ-18" style="edgeStyle=orthogonalEdgeStyle;rounded=0;orthogonalLoop=1;jettySize=auto;html=1;exitX=0;exitY=0.25;exitDx=0;exitDy=0;endArrow=none;endFill=0;" edge="1" parent="1" source="iDuxMZxF-oAPxdHn8beQ-2">
          <mxGeometry relative="1" as="geometry">
            <mxPoint x="240" y="235" as="targetPoint" />
          </mxGeometry>
        </mxCell>
        <mxCell id="iDuxMZxF-oAPxdHn8beQ-20" style="edgeStyle=orthogonalEdgeStyle;rounded=0;orthogonalLoop=1;jettySize=auto;html=1;exitX=0;exitY=0.5;exitDx=0;exitDy=0;endArrow=none;endFill=0;" edge="1" parent="1" source="iDuxMZxF-oAPxdHn8beQ-2">
          <mxGeometry relative="1" as="geometry">
            <mxPoint x="250" y="250" as="targetPoint" />
            <Array as="points">
              <mxPoint x="230" y="250" />
              <mxPoint x="230" y="250" />
            </Array>
          </mxGeometry>
        </mxCell>
        <mxCell id="iDuxMZxF-oAPxdHn8beQ-2" value="Sensor 2 -&lt;br&gt;Pressure" style="rounded=0;whiteSpace=wrap;html=1;fillColor=#dae8fc;strokeColor=#6c8ebf;" vertex="1" parent="1">
          <mxGeometry x="245" y="220" width="120" height="60" as="geometry" />
        </mxCell>
        <mxCell id="iDuxMZxF-oAPxdHn8beQ-48" style="edgeStyle=orthogonalEdgeStyle;rounded=0;orthogonalLoop=1;jettySize=auto;html=1;exitX=1;exitY=0.75;exitDx=0;exitDy=0;" edge="1" parent="1" source="iDuxMZxF-oAPxdHn8beQ-3">
          <mxGeometry relative="1" as="geometry">
            <mxPoint x="430" y="520" as="targetPoint" />
          </mxGeometry>
        </mxCell>
        <mxCell id="iDuxMZxF-oAPxdHn8beQ-60" style="edgeStyle=orthogonalEdgeStyle;rounded=0;orthogonalLoop=1;jettySize=auto;html=1;exitX=1;exitY=0.5;exitDx=0;exitDy=0;entryX=0;entryY=0.5;entryDx=0;entryDy=0;" edge="1" parent="1" source="iDuxMZxF-oAPxdHn8beQ-3" target="iDuxMZxF-oAPxdHn8beQ-49">
          <mxGeometry relative="1" as="geometry" />
        </mxCell>
        <mxCell id="iDuxMZxF-oAPxdHn8beQ-63" value="QOS2" style="edgeLabel;html=1;align=center;verticalAlign=middle;resizable=0;points=[];" connectable="0" vertex="1" parent="iDuxMZxF-oAPxdHn8beQ-60">
          <mxGeometry x="0.2032" y="-1" relative="1" as="geometry">
            <mxPoint x="-44" y="-1" as="offset" />
          </mxGeometry>
        </mxCell>
        <mxCell id="iDuxMZxF-oAPxdHn8beQ-3" value="ESP32" style="rounded=0;whiteSpace=wrap;html=1;fillColor=#f8cecc;strokeColor=#b85450;" vertex="1" parent="1">
          <mxGeometry x="230" y="310" width="150" height="90" as="geometry" />
        </mxCell>
        <mxCell id="iDuxMZxF-oAPxdHn8beQ-35" value="" style="edgeStyle=orthogonalEdgeStyle;rounded=0;orthogonalLoop=1;jettySize=auto;html=1;" edge="1" parent="1" source="iDuxMZxF-oAPxdHn8beQ-27" target="iDuxMZxF-oAPxdHn8beQ-3">
          <mxGeometry relative="1" as="geometry" />
        </mxCell>
        <mxCell id="iDuxMZxF-oAPxdHn8beQ-27" value="Voltage divider" style="rounded=0;whiteSpace=wrap;html=1;fillColor=#f5f5f5;fontColor=#333333;strokeColor=#666666;" vertex="1" parent="1">
          <mxGeometry x="245" y="430" width="120" height="60" as="geometry" />
        </mxCell>
        <mxCell id="iDuxMZxF-oAPxdHn8beQ-34" value="" style="edgeStyle=orthogonalEdgeStyle;rounded=0;orthogonalLoop=1;jettySize=auto;html=1;" edge="1" parent="1" source="iDuxMZxF-oAPxdHn8beQ-28" target="iDuxMZxF-oAPxdHn8beQ-27">
          <mxGeometry relative="1" as="geometry" />
        </mxCell>
        <mxCell id="iDuxMZxF-oAPxdHn8beQ-28" value="18V Battery" style="rounded=0;whiteSpace=wrap;html=1;fillColor=#fff2cc;strokeColor=#d6b656;" vertex="1" parent="1">
          <mxGeometry x="245" y="520" width="120" height="60" as="geometry" />
        </mxCell>
        <mxCell id="iDuxMZxF-oAPxdHn8beQ-31" value="Battery Temperature Sensor" style="rounded=0;whiteSpace=wrap;html=1;fillColor=#e1d5e7;strokeColor=#9673a6;" vertex="1" parent="1">
          <mxGeometry x="120" y="520" width="100" height="60" as="geometry" />
        </mxCell>
        <mxCell id="iDuxMZxF-oAPxdHn8beQ-36" value="" style="endArrow=classic;html=1;rounded=0;entryX=0;entryY=0.667;entryDx=0;entryDy=0;entryPerimeter=0;" edge="1" parent="1" target="iDuxMZxF-oAPxdHn8beQ-3">
          <mxGeometry width="50" height="50" relative="1" as="geometry">
            <mxPoint x="170" y="520" as="sourcePoint" />
            <mxPoint x="170" y="370" as="targetPoint" />
            <Array as="points">
              <mxPoint x="170" y="370" />
            </Array>
          </mxGeometry>
        </mxCell>
        <mxCell id="iDuxMZxF-oAPxdHn8beQ-39" style="edgeStyle=orthogonalEdgeStyle;rounded=0;orthogonalLoop=1;jettySize=auto;html=1;exitX=0.75;exitY=1;exitDx=0;exitDy=0;entryX=0;entryY=0.25;entryDx=0;entryDy=0;" edge="1" parent="1" source="iDuxMZxF-oAPxdHn8beQ-38" target="iDuxMZxF-oAPxdHn8beQ-3">
          <mxGeometry relative="1" as="geometry" />
        </mxCell>
        <mxCell id="iDuxMZxF-oAPxdHn8beQ-38" value="Sensor 3 - Flow sensor" style="rounded=0;whiteSpace=wrap;html=1;fillColor=#dae8fc;strokeColor=#6c8ebf;" vertex="1" parent="1">
          <mxGeometry x="100" y="130" width="100" height="60" as="geometry" />
        </mxCell>
        <mxCell id="iDuxMZxF-oAPxdHn8beQ-43" style="edgeStyle=orthogonalEdgeStyle;rounded=0;orthogonalLoop=1;jettySize=auto;html=1;exitX=0.25;exitY=1;exitDx=0;exitDy=0;entryX=1;entryY=0.25;entryDx=0;entryDy=0;" edge="1" parent="1" source="iDuxMZxF-oAPxdHn8beQ-42" target="iDuxMZxF-oAPxdHn8beQ-3">
          <mxGeometry relative="1" as="geometry">
            <Array as="points">
              <mxPoint x="430" y="190" />
              <mxPoint x="430" y="333" />
            </Array>
          </mxGeometry>
        </mxCell>
        <mxCell id="iDuxMZxF-oAPxdHn8beQ-42" value="RTC - TimeStamp" style="rounded=0;whiteSpace=wrap;html=1;fillColor=#d5e8d4;strokeColor=#82b366;" vertex="1" parent="1">
          <mxGeometry x="410" y="130" width="100" height="60" as="geometry" />
        </mxCell>
        <mxCell id="iDuxMZxF-oAPxdHn8beQ-44" value="SD Card" style="rounded=0;whiteSpace=wrap;html=1;fillColor=#d5e8d4;strokeColor=#82b366;" vertex="1" parent="1">
          <mxGeometry x="400" y="520" width="100" height="60" as="geometry" />
        </mxCell>
        <mxCell id="iDuxMZxF-oAPxdHn8beQ-58" style="edgeStyle=orthogonalEdgeStyle;rounded=0;orthogonalLoop=1;jettySize=auto;html=1;exitX=0.5;exitY=1;exitDx=0;exitDy=0;entryX=0.5;entryY=0;entryDx=0;entryDy=0;" edge="1" parent="1" source="iDuxMZxF-oAPxdHn8beQ-49" target="iDuxMZxF-oAPxdHn8beQ-57">
          <mxGeometry relative="1" as="geometry" />
        </mxCell>
        <mxCell id="iDuxMZxF-oAPxdHn8beQ-62" style="edgeStyle=orthogonalEdgeStyle;rounded=0;orthogonalLoop=1;jettySize=auto;html=1;exitX=0.5;exitY=0;exitDx=0;exitDy=0;entryX=0.557;entryY=1.029;entryDx=0;entryDy=0;entryPerimeter=0;" edge="1" parent="1" source="iDuxMZxF-oAPxdHn8beQ-49" target="iDuxMZxF-oAPxdHn8beQ-51">
          <mxGeometry relative="1" as="geometry">
            <Array as="points">
              <mxPoint x="704" y="310" />
            </Array>
          </mxGeometry>
        </mxCell>
        <mxCell id="iDuxMZxF-oAPxdHn8beQ-49" value="RasberryPI/Broker" style="rounded=0;whiteSpace=wrap;html=1;fillColor=#f8cecc;strokeColor=#b85450;" vertex="1" parent="1">
          <mxGeometry x="620" y="310" width="150" height="90" as="geometry" />
        </mxCell>
        <mxCell id="iDuxMZxF-oAPxdHn8beQ-61" style="edgeStyle=orthogonalEdgeStyle;rounded=0;orthogonalLoop=1;jettySize=auto;html=1;exitX=0.5;exitY=1;exitDx=0;exitDy=0;" edge="1" parent="1" source="iDuxMZxF-oAPxdHn8beQ-51">
          <mxGeometry relative="1" as="geometry">
            <mxPoint x="686" y="310" as="targetPoint" />
            <Array as="points">
              <mxPoint x="686" y="220" />
            </Array>
          </mxGeometry>
        </mxCell>
        <mxCell id="iDuxMZxF-oAPxdHn8beQ-51" value="PLC" style="rounded=0;whiteSpace=wrap;html=1;fillColor=#f8cecc;strokeColor=#b85450;" vertex="1" parent="1">
          <mxGeometry x="620" y="130" width="150" height="90" as="geometry" />
        </mxCell>
        <mxCell id="iDuxMZxF-oAPxdHn8beQ-57" value="TÃ©rmica Broker" style="rounded=0;whiteSpace=wrap;html=1;fillColor=#f8cecc;strokeColor=#b85450;" vertex="1" parent="1">
          <mxGeometry x="620" y="495" width="150" height="90" as="geometry" />
        </mxCell>
      </root>
    </mxGraphModel>
  </diagram>
</mxfile>
